<?xml version="1.0" encoding="UTF-8"?><svg xmlns="http://www.w3.org/2000/svg" width="500" height="325"><rect style="fill:#ffffff" width="500" height="325" x="0" y="0" /><g transform="translate(0,-727.36215)"><g transform="translate(-105.05587,174.75638)"><path d="m 192.64631,801.55137 c -23.31591,-2.6578 -39.53356,-6.61887 -51.42857,-12.56113 -7.25488,-3.62424 -7.07914,-3.14218 -4.18092,-11.46854 2.91023,-8.36088 11.27924,-29.38825 14.48934,-36.40488 1.21319,-2.65178 2.58831,-4.82142 3.05582,-4.82142 0.46751,0 5.04183,1.65087 10.16516,3.66862 17.44535,6.87059 29.40249,9.3034 46.11345,9.3823 11.60873,0.0548 17.26865,-0.88087 22.8143,-3.77155 5.82882,-3.03828 9.55452,-8.70357 9.62553,-14.63652 0.10254,-8.56709 -6.40476,-14.91835 -27.08268,-26.4333 -31.33741,-17.4509 -44.15869,-29.71893 -51.13017,-48.92384 -2.18848,-11.94392 -3.43638,-22.21517 -0.10924,-34.44575 8.04489,-29.03601 31.84396,-49.74858 65.88226,-57.33801 11.58696,-2.58351 19.97063,-3.43896 33.57143,-3.42555 13.53724,0.0133 22.76101,0.86578 33.92857,3.13558 9.16865,1.86352 20.0864,5.47843 22.28182,7.3776 2.84615,1.78363 0.83651,4.15991 -0.0583,6.89413 -2.54549,7.7777 -13.24302,36.98795 -14.62881,39.94486 -0.71721,1.53032 -1.76748,2.58506 -2.70778,2.71931 -0.84487,0.12062 -5.98647,-1.09552 -11.42578,-2.70252 -12.75973,-3.76976 -20.63523,-5.0133 -31.67538,-5.00152 -10.13427,0.0108 -16.85146,1.19265 -22.3224,3.92742 -6.99352,3.49586 -9.82046,7.28957 -9.82046,13.17889 0,7.43398 4.64066,11.7004 26.30974,24.18807 24.0192,13.84203 35.34284,22.18185 42.7248,31.46668 9.16705,11.53009 13.40222,26.87422 11.75281,42.58081 -1.94415,18.51326 -7.54315,31.39316 -19.04929,43.82086 -12.09025,13.05858 -29.96995,22.31198 -52.45782,27.14883 -10.33765,2.2235 -34.9651,3.60312 -44.63738,2.50057 z" style="fill:#045aa0" /><path d="m 305.14631,800.84687 c 0,-2.01596 2.7206,-17.43413 7.86129,-44.55147 2.71833,-14.33929 10.88981,-57.57143 18.15885,-96.07143 15.66684,-82.97848 17.24153,-90.84944 18.58636,-92.9019 2.85022,-4.34999 40.00348,-7.99246 73.96493,-7.25146 38.55732,0.84128 57.28722,6.57918 73.3933,22.48401 7.285,7.19398 11.55295,14.02351 14.52628,23.24483 1.88849,5.85686 2.57064,18.97582 1.40307,26.98385 -3.39625,23.29404 -16.05951,39.7977 -39.81989,51.89613 -5.21744,2.65664 -9.48996,5.04246 -9.49451,5.30182 -0.004,0.25937 1.35782,2.1364 3.02746,4.17117 11.97766,14.59708 12.93547,18.0105 18.74026,66.78583 1.40263,11.78572 3.22533,25.53902 4.05044,30.56289 0.82511,5.02387 1.27147,9.36316 0.99191,9.64286 -0.27955,0.2797 -10.99027,0.62245 -23.80162,0.76168 -22.64477,0.24609 -35.45473,-0.18263 -37.17223,-1.24411 -1.21973,-0.75383 -3.98854,-18.18977 -6.51892,-41.05141 -1.21138,-10.94474 -2.70934,-22.35545 -3.32879,-25.35714 -3.03284,-14.69629 -10.3929,-21.03042 -25.55559,-21.99334 -5.25406,-0.43527 -11.10135,-0.39813 -12.37465,4.07802 -0.48727,1.74459 -3.94352,19.40412 -7.68058,39.24341 -3.73705,19.83929 -7.36161,38.32143 -8.05457,41.07143 l -1.25995,5 -29.82142,0.18641 c -27.31109,0.17072 -29.82143,0.0872 -29.82143,-0.99208 z M 446.47154,645.46011 c 5.35342,-11.07527 4.1148,-22.72461 -3.08873,-29.04939 -6.23046,-5.47041 -12.76054,-7.25818 -26.51157,-7.25818 -15.25069,0 -14.1627,-0.56636 -16.27873,8.47398 -3.0483,13.02326 -9.14542,45.16274 -8.75884,46.17014 0.57289,1.49292 2.83944,1.71135 14.74121,1.42057 16.00839,-0.23997 33.0564,-6.25521 39.89666,-19.75712 z" style="fill:#045aa0" /><path d="m 495.86059,801.10783 c 0,-1.98481 31.56824,-169.46803 32.57946,-172.84815 0.34826,-1.1641 2.37088,-1.24925 29.43296,-1.23906 15.98245,0.006 29.50983,0.29636 30.06084,0.64522 -31.78418,173.36666 0.32694,0.75536 -31.68931,173.48447 -0.2758,0.27623 -13.97502,0.59889 -30.4427,0.71704 -24.91713,0.17877 -29.94125,0.0513 -29.94125,-0.75952 z" style="fill:#045aa0" /><path d="m 155.71635,862.76115 c -2.42109,-0.73119 -2.33135,-1.99266 1.54457,-21.71108 2.73547,-13.91644 3.35189,-16.14612 4.65684,-16.84451 1.17324,-0.62789 4.59125,-0.59933 5.36745,0.0448 0.78159,0.64866 0.55901,2.91546 -1.25946,12.82653 -2.76252,15.05637 -4.78717,23.61379 -5.88585,24.87733 -0.866,0.99594 -2.69366,1.32931 -4.42355,0.80688 z" style="fill:#045aa0" /><path d="m 204.47681,862.24105 c -0.82559,-0.76553 -0.97849,-1.19847 -0.97849,-2.77059 0,-3.06168 4.44242,-27.52994 5.92294,-32.62274 0.74588,-2.56573 1.43441,-2.98507 4.90128,-2.98507 4.85788,0.48365 2.2122,7.94444 1.96241,11.5053 2.84763,-0.12998 6.30806,-1.23378 8.77309,-0.44952 1.56331,0.51594 3.27581,2.41565 3.78819,4.20231 0.74811,2.60867 0.83328,6.91168 0.22112,11.17048 -1.32331,9.20623 -2.08108,11.09975 -4.91143,12.27276 -6.7164,1.35519 -3.82507,-7.52515 -3.31604,-11.20675 1.23919,-8.8991 0.90417,-10.43875 -2.09144,-9.61162 -1.68542,0.46537 -3.85136,2.94927 -4.85211,5.56441 -1.96197,4.69853 -1.674,11.21339 -5.21506,14.8562 -1.29287,1.27663 -2.87795,1.30484 -4.20446,0.0748 z" style="fill:#045aa0" /><path d="m 270.10546,862.81441 c -4.2231,-1.02811 -7.27139,-5.13944 -7.6025,-10.25374 -0.53842,-8.31647 4.81684,-15.15155 13.65968,-17.43425 3.77407,-0.97425 6.59719,-0.64668 8.31782,0.96513 1.87847,1.75967 0.20709,4.21141 -3.32623,4.87926 -4.13375,0.78133 -6.0022,1.50557 -7.22433,2.80026 -2.70629,2.86695 -4.03065,7.58695 -2.78026,9.90879 0.85269,1.58335 2.65348,2.34828 6.63439,2.81809 2.48257,0.26392 4.32768,-0.26602 4.47219,2.20656 0.1356,2.32012 -1.68091,3.4815 -3.90679,4.04198 -1.75017,0.4407 -6.55029,0.48025 -8.24397,0.0679 z" style="fill:#045aa0" /><path d="m 326.76462,862.58693 c -3.98675,-1.0725 -5.10902,-2.75023 -5.08602,-7.60336 0.0243,-5.13156 3.88653,-26.0485 5.37899,-29.13153 0.90589,-1.87132 1.81396,-2.26114 4.79752,-2.0595 4.11961,-0.29777 1.73346,8.87505 1.61766,11.58361 4.74004,-0.80781 9.39627,-0.53324 11.77668,1.79552 2.46169,2.44025 2.97471,3.49656 3.16291,6.51241 0.40179,6.43862 -3.68997,14.35682 -9.03876,17.49142 -3.23069,1.8933 -8.58835,2.49304 -12.60898,1.41143 z m 8.17122,-7.12279 c 3.68547,-2.32653 5.8422,-7.84118 4.4709,-11.43187 -0.95527,-2.50135 -2.88795,-3.03884 -5.22255,-1.45245 -3.10839,2.11221 -5.75162,10.57179 -4.05848,12.98908 0.7842,1.1196 2.94518,1.07253 4.81013,-0.10476 z" style="fill:#045aa0" /><path d="m 351.44475,862.43799 c -1.07406,-0.65486 -1.16072,-0.84875 -1.16072,-2.59697 0,-3.12428 2.48822,-16.40955 3.97482,-21.22258 0.8399,-2.7193 1.90942,-3.68436 4.08314,-3.68436 3.14241,0 3.67552,2.46499 2.28787,10.57874 -1.04697,6.12179 -3.12469,14.46071 -3.93502,15.79318 -1.15309,1.89612 -3.25392,2.34908 -5.25009,1.13199 z" style="fill:#045aa0" /><path d="m 390.90903,862.60459 c -0.56552,-0.31696 -1.00536,-0.8865 -1.03687,-1.34263 -0.23024,-3.33271 0.79487,-10.30008 3.0004,-20.39292 l 1.16147,-5.31504 3.92857,0.0441 c 2.16072,0.0242 5.76105,-0.1759 8.00073,-0.44475 4.87883,-0.58564 5.77779,-0.39683 7.86551,1.65206 1.98259,1.94571 2.52662,3.26545 2.52662,6.12918 0,2.52313 -1.36674,10.51118 -2.57249,15.03524 -0.95759,3.59292 -2.32175,5.17857 -4.45519,5.17857 -1.89353,0 -2.8563,-0.75728 -3.05501,-2.40296 -0.0894,-0.74087 0.21079,-4.71675 0.6672,-8.83528 0.89602,-8.08551 0.78932,-9.93286 -0.5992,-10.37356 -1.14953,-0.36485 -3.27743,0.92537 -4.47061,2.71067 -1.41251,2.11348 -2.76279,5.99856 -3.69282,10.62512 -1.20646,6.00176 -2.29004,7.73056 -5.08768,8.11712 -0.70778,0.0978 -1.60061,-0.0598 -2.18063,-0.38488 z" style="fill:#045aa0" /><path d="m 480.25992,872.76137 c 6.37763,-36.18283 0.21643,-0.0176 6.11844,-36.66984 18.1293,-0.0639 13.52676,-1.54968 18.23628,-0.32503 3.4452,2.01902 4.62917,4.70399 4.68076,10.61483 -0.0524,5.25171 -1.78428,8.69249 -5.31546,12.33396 -2.87939,2.93664 -5.12288,3.96348 -9.69566,4.43765 -4.76725,0.49434 -5.40832,0.94303 -6.37178,4.45971 -1.07941,3.93991 -1.60798,5.09189 -2.43853,5.31457 -1.18742,0.31837 -4.24693,0.22105 -5.21405,-0.16585 z m 15.2832,-16.91619 c 3.8604,-2.59689 6.7142,-9.96409 3.99086,-13.20376 -2.97264,-3.16423 -7.8391,2.34057 -8.78879,9.94164 -0.1134,3.84976 1.83961,4.22368 4.79791,3.26212 z" style="fill:#045aa0" /><path d="m 517.17134,862.76826 c -4.41297,-2.13268 -6.05197,-6.4596 -6.04483,-9.79847 0.09,-5.16707 2.59838,-10.09186 6.26514,-13.73533 4.72446,-4.58493 16.5608,-6.24466 20.19379,-2.83164 1.0583,0.99422 1.0832,2.13078 0.15355,7.0096 -1.11367,5.34659 -1.49183,10.46063 -2.73747,15.80737 -0.9055,3.80042 -2.87035,4.87104 -5.57127,3.03572 -0.72268,-0.49107 -1.58429,-0.89286 -1.9147,-0.89286 -3.3305,0.82015 -7.06414,2.30187 -10.34421,1.40561 z m 7.36371,-7.72347 c 2.47016,-2.23164 4.61477,-7.42998 4.61477,-11.18575 0,-1.93012 -0.44979,-2.49639 -1.98289,-2.49639 -3.53905,0 -8.09157,6.99496 -7.56913,11.62999 0.40239,3.57001 2.35762,4.38269 4.93725,2.05215 z" style="fill:#045aa0" /><path d="m 548.0347,832.72411 c -2.77313,-2.24282 2.02588,-8.58716 6.54831,-8.65692 3.2359,-0.0499 3.59656,1.75358 0.92933,4.64719 -3.07767,3.33887 -6.22222,5.02507 -7.47764,4.00973 z" style="fill:#045aa0" /><path d="m 556.74806,862.8016 c -2.49196,-0.59207 -3.97717,-2.30798 -3.5322,-4.08088 0.31479,-1.25422 1.15785,-1.61294 4.77418,-2.03144 4.23295,-0.48984 5.08836,-0.85364 5.08836,-2.16405 0,-0.80752 -0.62149,-1.6855 -2.81343,-3.97453 -3.32166,-3.46879 -4.32943,-5.18516 -4.32943,-7.37357 0,-4.5867 4.49694,-8.03908 11.07143,-8.49974 4.12386,-0.28895 6.66244,1.17888 6.36523,3.68043 -0.16868,1.41975 -1.55452,2.23085 -4.5189,2.64481 -5.20218,0.72644 -5.32709,1.65451 -0.81165,6.03056 1.74764,1.6937 3.45413,3.63051 3.79218,4.30402 1.52368,3.03561 -0.85677,8.51805 -4.51587,10.40055 -2.30988,1.18836 -7.74387,1.73528 -10.5699,1.06384 l 0,0 z" style="fill:#045aa0" /><path d="m 579.55243,850.61407 c -1.6054,-1.49566 -1.60057,-1.9284 0.14083,-12.60708 0.90023,-5.52046 1.81173,-10.48674 2.02555,-11.03618 0.86298,-2.21754 5.16048,-2.91116 6.94992,-1.12172 0.84141,0.84141 0.8954,1.07839 0.67128,2.94642 -0.24396,2.03337 -3.40972,15.92723 -4.31278,18.92786 -0.97027,3.22395 -3.61705,4.62145 -5.4748,2.8907 z" style="fill:#045aa0" /><path d="m 586.78341,620.65362 c -1.08567,-0.43841 -7.26959,-7.79482 -25.67324,-30.54097 -13.79618,-17.0515 -21.25624,-26.60973 -22.06095,-28.26567 -1.10292,-2.2696 -0.83236,-2.51133 3.20089,-2.85986 4.47015,-0.38628 53.19506,-0.39891 55.87763,-0.0145 3.29411,0.47207 3.30027,0.48397 2.6285,5.07726 -2.0367,13.92599 -9.07607,51.33323 -10.24757,54.45561 -0.45233,1.20558 -1.713,2.50512 -2.40324,2.47736 -0.30951,-0.0125 -0.90442,-0.16061 -1.32202,-0.32925 l 0,0 z" style="fill:#e9382b" /><path d="m 435.86155,862.28138 c -4.41297,-2.13268 -6.05197,-6.4596 -6.04483,-9.79847 0.09,-5.16707 2.59838,-10.09186 6.26514,-13.73533 4.72446,-4.58493 16.5608,-6.24466 20.19379,-2.83164 1.0583,0.99422 1.0832,2.13078 0.15355,7.0096 -1.11367,5.34659 -1.49183,10.46063 -2.73747,15.80737 -0.9055,3.80042 -2.87035,4.87104 -5.57127,3.03572 -0.72268,-0.49107 -1.58429,-0.89286 -1.9147,-0.89286 -3.3305,0.82015 -7.06414,2.30187 -10.34421,1.40561 z m 7.36371,-7.72347 c 2.47016,-2.23164 4.61477,-7.42998 4.61477,-11.18575 0,-1.93012 -0.44979,-2.49639 -1.98289,-2.49639 -3.53905,0 -8.09157,6.99496 -7.56913,11.62999 0.40239,3.57001 2.35762,4.38269 4.93725,2.05215 z" style="fill:#045aa0" /><path d="m 238.67313,862.76827 c -4.41297,-2.13268 -6.05197,-6.4596 -6.04483,-9.79847 0.09,-5.16707 2.59838,-10.09186 6.26514,-13.73533 4.72446,-4.58493 16.5608,-6.24466 20.19379,-2.83164 1.0583,0.99422 1.0832,2.13078 0.15355,7.0096 -1.11367,5.34659 -1.49183,10.46063 -2.73747,15.80737 -0.9055,3.80042 -2.87035,4.87104 -5.57127,3.03572 -0.72268,-0.49107 -1.58429,-0.89286 -1.9147,-0.89286 -3.3305,0.82015 -7.06414,2.30187 -10.34421,1.40561 z m 7.36371,-7.72347 c 2.47016,-2.23164 4.61477,-7.42998 4.61477,-11.18575 0,-1.93012 -0.44979,-2.49639 -1.98289,-2.49639 -3.53905,0 -8.09157,6.99496 -7.56913,11.62999 0.40239,3.57001 2.35762,4.38269 4.93725,2.05215 z" style="fill:#045aa0" /><path d="m 459.71635,862.76115 c -2.42109,-0.73119 -2.33135,-1.99266 1.54457,-21.71108 2.73547,-13.91644 3.35189,-16.14612 4.65684,-16.84451 1.17324,-0.62789 4.59125,-0.59933 5.36745,0.0448 0.78159,0.64866 0.55901,2.91546 -1.25946,12.82653 -2.76252,15.05637 -4.78717,23.61379 -5.88585,24.87733 -0.866,0.99594 -2.69366,1.32931 -4.42355,0.80688 z" style="fill:#045aa0" /><path d="m 541.44475,862.43799 c -1.07406,-0.65486 -1.16072,-0.84875 -1.16072,-2.59697 0,-3.12428 2.48822,-16.40955 3.97482,-21.22258 0.8399,-2.7193 1.90942,-3.68436 4.08314,-3.68436 3.14241,0 3.67552,2.46499 2.28787,10.57874 -1.04697,6.12179 -3.12469,14.46071 -3.93502,15.79318 -1.15309,1.89612 -3.25392,2.34908 -5.25009,1.13199 z" style="fill:#045aa0" /></g></g><path d="m 289.00935,112.14334 c -1.04836,-0.22299 -1.564,-0.66414 -1.67351,-1.43174 -0.21702,-1.52105 1.47828,-11.435619 4.73189,-27.673407 4.04731,-20.198925 4.91423,-23.480083 6.58298,-24.915484 l 1.39178,-1.19716 12.1611,0.240322 c 13.51006,0.266979 15.9211,0.681477 21.2823,3.658793 6.69726,3.719283 10.28544,9.476946 10.69584,17.162766 0.4625,8.661509 -2.59474,16.257984 -9.15188,22.74008 -7.23258,7.14982 -15.678,10.53808 -28.34283,11.37099 -7.8602,0.51694 -15.36864,0.53599 -17.67767,0.0448 l 0,-1e-5 z" style="fill:#ffffff" /><path d="m 268.80105,292.41384 c -1.02326,-1.03724 1.66393,-3.40622 3.89875,-3.43706 2.23803,-0.0309 2.62722,1.93502 0.5825,2.94239 -1.03128,0.50807 -4.13052,0.85019 -4.48125,0.49467 z" style="fill:#ffffff" /><path d="m 268.80105,292.41384 c -1.02326,-1.03724 1.66393,-3.40622 3.89875,-3.43706 2.23803,-0.0309 2.62722,1.93502 0.5825,2.94239 -1.03128,0.50807 -4.13052,0.85019 -4.48125,0.49467 z" style="fill:#ffffff" /><path d="m 188.45645,309.62326 c -3.46227,-0.89325 -6.13963,-2.83029 -7.23115,-5.23164 -0.84997,-1.86994 -0.71714,-8.37994 0.23327,-11.43276 1.5424,-4.95434 5.78141,-9.47938 10.17473,-10.86125 5.60161,-1.76192 11.7318,0.89602 13.06723,5.66571 0.51632,1.84412 0.2551,3.3944 -0.91494,5.42994 -1.71684,2.9868 -4.35167,4.51548 -9.50463,5.51438 -4.02064,0.7794 -4.93403,1.15687 -4.92618,2.03583 0.015,1.68337 1.36909,2.20778 6.33492,2.45341 4.56577,0.22584 5.80247,0.66128 5.80247,2.04301 0,1.27922 -1.46089,3.18216 -3.04043,3.96045 -1.77449,0.87434 -7.33383,1.10956 -9.99529,0.42292 z m 6.48345,-17.92603 c 2.18577,-0.88241 1.85903,-3.37704 -0.44232,-3.37704 -2.07693,0 -4.43398,1.66211 -4.43398,3.12669 0,1.11347 2.42935,1.2382 4.8763,0.25035 z" style="fill:#045aa0" /><path d="m 68.45645,309.62326 c -3.46227,-0.89325 -6.13963,-2.83029 -7.23115,-5.23164 -0.84997,-1.86994 -0.71714,-8.37994 0.23327,-11.43276 1.5424,-4.95434 5.78141,-9.47938 10.17473,-10.86125 5.60161,-1.76192 11.7318,0.89602 13.06723,5.66571 0.51632,1.84412 0.2551,3.3944 -0.91494,5.42994 -1.71684,2.9868 -4.35167,4.51548 -9.50463,5.51438 -4.02064,0.7794 -4.93403,1.15687 -4.92618,2.03583 0.015,1.68337 1.36909,2.20778 6.33492,2.45341 4.56577,0.22584 5.80247,0.66128 5.80247,2.04301 0,1.27922 -1.46089,3.18216 -3.04043,3.96045 -1.77449,0.87434 -7.33383,1.10956 -9.99529,0.42292 z m 6.48345,-17.92603 c 2.18577,-0.88241 1.85903,-3.37704 -0.44232,-3.37704 -2.07693,0 -4.43398,1.66211 -4.43398,3.12669 0,1.11347 2.42935,1.2382 4.8763,0.25035 z" style="fill:#045aa0" /><path d="m 266.45645,309.62326 c -3.46227,-0.89325 -6.13963,-2.83029 -7.23115,-5.23164 -0.84997,-1.86994 -0.71714,-8.37994 0.23327,-11.43276 1.5424,-4.95434 5.78141,-9.47938 10.17473,-10.86125 5.60161,-1.76192 11.7318,0.89602 13.06723,5.66571 0.51632,1.84412 0.2551,3.3944 -0.91494,5.42994 -1.71684,2.9868 -4.35167,4.51548 -9.50463,5.51438 -4.02064,0.7794 -4.93403,1.15687 -4.92618,2.03583 0.015,1.68337 1.36909,2.20778 6.33492,2.45341 4.56577,0.22584 5.80247,0.66128 5.80247,2.04301 0,1.27922 -1.46089,3.18216 -3.04043,3.96045 -1.77449,0.87434 -7.33383,1.10956 -9.99529,0.42292 z m 6.48345,-17.92603 c 2.18577,-0.88241 1.85903,-3.37704 -0.44232,-3.37704 -2.07693,0 -4.43398,1.66211 -4.43398,3.12669 0,1.11347 2.42935,1.2382 4.8763,0.25035 z" style="fill:#045aa0" /><path d="m 259.22714,274.25469 a 5.0061918,4.4675798 82.748989 1 1 -0.0235,-0.12359" style="fill:#045aa0" /><path d="m 479.22714,304.25469 a 5.0061918,4.4675798 82.748989 1 1 -0.0235,-0.12359" style="fill:#045aa0" /><path d="m 37.22714,304.25469 a 5.0061918,4.4675798 82.748989 1 1 -0.0235,-0.12359" style="fill:#045aa0" /><path d="m 27.22714,304.25469 a 5.0061918,4.4675798 82.748989 1 1 -0.0235,-0.12359" style="fill:#045aa0" /><path d="m 17.22714,304.25469 a 5.0061918,4.4675798 82.748989 1 1 -0.0235,-0.12359" style="fill:#045aa0" /></svg>